<!-- Generated by IcoMoon.io -->
<svg version="1.1" xmlns="http://www.w3.org/2000/svg" width="32" height="32" viewBox="0 0 32 32">
<title>call-answer</title>
<path fill="#fff" d="M31.282 25.289l-4.942-4.942c-0.984-0.98-2.614-0.951-3.633 0.068l-2.49 2.489c-0.157-0.087-0.32-0.177-0.491-0.273-1.572-0.871-3.724-2.065-5.989-4.331-2.271-2.271-3.466-4.426-4.34-5.999-0.092-0.167-0.181-0.327-0.268-0.48l2.492-2.491c1.020-1.020 1.048-2.65 0.066-3.633l-4.942-4.943c-0.982-0.982-2.613-0.952-3.633 0.068l-1.393 1.401 0.038 0.038c-0.467 0.596-0.857 1.283-1.148 2.024-0.268 0.705-0.434 1.379-0.511 2.053-0.653 5.41 1.82 10.354 8.528 17.063 9.274 9.273 16.747 8.573 17.070 8.539 0.702-0.084 1.375-0.252 2.059-0.517 0.735-0.287 1.422-0.677 2.017-1.143l0.031 0.027 1.411-1.382c1.018-1.020 1.047-2.65 0.066-3.635z"></path>
</svg>
