<svg width="24" height="24" viewBox="0 0 24 24" fill="none" xmlns="http://www.w3.org/2000/svg">
<g clip-path="url(#clip0)">
<path d="M23.4616 18.967L19.7551 15.2602C19.0169 14.5249 17.7943 14.5472 17.0304 15.3115L15.1631 17.1784C15.0451 17.1133 14.923 17.0454 14.7946 16.9734C13.6154 16.32 12.0015 15.4245 10.3032 13.7249C8.59982 12.0218 7.70347 10.4054 7.0481 9.22544C6.97894 9.10043 6.91268 8.97991 6.84725 8.86545L8.10049 7.61407L8.71663 6.99717C9.48177 6.23182 9.50287 5.00961 8.76634 4.27219L5.05992 0.56494C4.32339 -0.171449 3.10028 -0.149109 2.33514 0.616239L1.29054 1.66683L1.31909 1.69517C0.968823 2.14211 0.676129 2.65758 0.458315 3.21346C0.257532 3.74258 0.132525 4.2475 0.0753652 4.75346C-0.414044 8.81077 1.44003 12.5188 6.47174 17.5506C13.4271 24.5055 19.0322 23.9801 19.274 23.9545C19.8007 23.8915 20.3054 23.7657 20.8183 23.5665C21.3693 23.3512 21.8845 23.0589 22.3311 22.7094L22.354 22.7297L23.4122 21.6934C24.1758 20.9282 24.1978 19.7056 23.4616 18.967Z" fill="white"/>
</g>
<defs>
<clipPath id="clip0">
<rect width="24" height="24" fill="white"/>
</clipPath>
</defs>
</svg>
