<svg width="47" height="47" viewBox="0 0 47 47" fill="none" xmlns="http://www.w3.org/2000/svg">
<path d="M8.12005 23.2555C8.12005 30.5682 17.3167 33.4654 21.915 34C16.4511 33.8931 5.62072 31.5945 6.01023 23.2555C6.49711 12.8317 22.7265 13.7939 22.8888 13.6335C23.6678 12.6072 26.297 12.9921 25.9724 13.6336C25.756 14.4354 25.1934 15.9749 24.674 16.3598C24.1547 16.7446 23.5921 16.1994 23.3757 15.8787C18.2905 15.2906 8.12005 15.9428 8.12005 23.2555Z" fill="url(#paint0_linear)"/>
<path d="M26.491 29.8885C23.5254 39.4247 20.9573 37.8353 20.044 35.8486C19.8829 36.9523 20.0763 39.1267 22.1393 38.9942C24.7181 38.8287 28.2639 30.3852 28.7474 27.074C29.1342 24.4251 29.764 24.3662 29.7145 24.7562C29.3921 27.2947 29.2309 32.3056 31.165 32.0408C33.0991 31.7759 34.7646 22.9902 35.3556 18.6305C35.4707 17.7813 35.9562 17.9468 36.3226 19.4583C36.6294 20.7241 36.7524 26.6877 36.6449 29.5574C36.6449 30.2748 36.8061 31.511 37.4508 30.7163C38.0955 29.9216 38.0418 26.0806 37.9343 24.2595C37.6657 20.2861 36.8384 12.4386 35.6779 12.836C34.2273 13.3326 33.5826 18.2994 33.2603 22.2728C33.0024 25.4515 32.1955 25.5073 31.9269 25.2314C31.712 24.9555 31.6486 24.9003 31.6486 23.4317C31.6486 22.4952 32.0246 16.2023 32.1321 13.1671C32.1858 12.0082 32.0676 9.75658 31.165 10.0215C30.2625 10.2864 30.0368 11.4563 30.0368 12.0082C30.0905 13.9949 29.4566 20.3523 26.491 29.8885Z" fill="url(#paint1_linear)"/>
<path fill-rule="evenodd" clip-rule="evenodd" d="M23.5 44.4069C35.0466 44.4069 44.4069 35.0466 44.4069 23.5C44.4069 11.9534 35.0466 2.5931 23.5 2.5931C11.9534 2.5931 2.5931 11.9534 2.5931 23.5C2.5931 35.0466 11.9534 44.4069 23.5 44.4069ZM23.5 47C36.4787 47 47 36.4787 47 23.5C47 10.5213 36.4787 0 23.5 0C10.5213 0 0 10.5213 0 23.5C0 36.4787 10.5213 47 23.5 47Z" fill="url(#paint2_linear)"/>
<defs>
<linearGradient id="paint0_linear" x1="6" y1="13" x2="26.2093" y2="13.2034" gradientUnits="userSpaceOnUse">
<stop stop-color="#3567B7"/>
<stop offset="1" stop-color="#234276"/>
</linearGradient>
<linearGradient id="paint1_linear" x1="20" y1="10" x2="38.1895" y2="10.1193" gradientUnits="userSpaceOnUse">
<stop stop-color="#3567B7"/>
<stop offset="1" stop-color="#234276"/>
</linearGradient>
<linearGradient id="paint2_linear" x1="0" y1="0" x2="47.4914" y2="0.501918" gradientUnits="userSpaceOnUse">
<stop stop-color="#3567B7"/>
<stop offset="1" stop-color="#234276"/>
</linearGradient>
</defs>
</svg>
