<svg width="82" height="82" viewBox="0 0 82 82" fill="none" xmlns="http://www.w3.org/2000/svg">
<path d="M13.873 40.471C13.873 53.3648 29.896 58.4733 37.9075 59.4158C28.3879 59.2273 9.51852 55.1745 10.1971 40.471C11.0454 22.0917 39.3213 23.7883 39.604 23.5055C40.9613 21.6958 45.542 22.3745 44.9765 23.5055C44.5994 24.9193 43.6192 27.6338 42.7144 28.3124C41.8096 28.991 40.8293 28.0296 40.4523 27.4641C31.5925 26.4273 13.873 27.5772 13.873 40.471Z" fill="white"/>
<path d="M49.8428 52.0641C44.64 68.351 40.1347 65.6366 38.5324 62.2435C38.2496 64.1285 38.589 67.8421 42.2083 67.6159C46.7324 67.3331 52.9531 52.9124 53.8014 47.2572C54.48 42.7331 55.5848 42.6326 55.4979 43.2986C54.9324 47.6342 54.6496 56.1924 58.0428 55.74C61.4359 55.2876 64.3577 40.2825 65.3945 32.8365C65.5964 31.3861 66.4483 31.6688 67.091 34.2503C67.6293 36.4122 67.8451 46.5975 67.6565 51.4986C67.6565 52.7239 67.9393 54.8352 69.0703 53.4779C70.2014 52.1207 70.1071 45.5607 69.9186 42.4503C69.4473 35.6641 67.9959 22.2614 65.96 22.94C63.4152 23.7883 62.2841 32.271 61.7186 39.0572C61.2662 44.4862 59.8506 44.5815 59.3793 44.1102C59.0023 43.639 58.891 43.5447 58.891 41.0365C58.891 39.437 59.5508 28.6894 59.7393 23.5055C59.8336 21.5262 59.6262 17.6807 58.0428 18.1331C56.4593 18.5855 56.0634 20.5837 56.0634 21.5262C56.1577 24.9193 55.0455 35.7772 49.8428 52.0641Z" fill="white"/>
<circle cx="41" cy="41" r="37" stroke="white" stroke-width="8"/>
</svg>
