<svg width="38" height="38" viewBox="0 0 38 38" fill="none" xmlns="http://www.w3.org/2000/svg">
<g clip-path="url(#clip0)">
<path d="M18.0779 37.5889C17.5536 37.0049 5.23779 23.1796 5.23779 13.7621C5.23787 6.17366 11.4115 0 19 0C26.5885 0 32.7621 6.17366 32.7621 13.7621C32.7621 23.1796 20.4463 37.0049 19.922 37.5889C19.4294 38.1376 18.5694 38.1365 18.0779 37.5889Z" fill="#FF5752"/>
<path d="M32.7621 13.7621C32.7621 6.17366 26.5885 0 19.0001 0V38C19.338 38 19.676 37.8632 19.9221 37.5889C20.4463 37.005 32.7621 23.1796 32.7621 13.7621Z" fill="#DB3A3C"/>
<path d="M19.0001 20.6862C15.1822 20.6862 12.0762 17.5801 12.0762 13.7621C12.0762 9.94414 15.1823 6.83801 19.0001 6.83801C22.8179 6.83801 25.9241 9.94414 25.9241 13.7621C25.9241 17.5801 22.8179 20.6862 19.0001 20.6862Z" fill="#EFEFEF"/>
<path d="M19.0001 6.83801V20.6861C22.8181 20.6861 25.9241 17.58 25.9241 13.762C25.9241 9.94407 22.8179 6.83801 19.0001 6.83801Z" fill="#C5D8DF"/>
</g>
<defs>
<clipPath id="clip0">
<rect width="38" height="38" fill="white"/>
</clipPath>
</defs>
</svg>
